# xmcd CD database file
#
# Track frame offsets:
#	150
#	20157
#	58107
#	82467
#	124842
#	140530
#	177550
#	209777
#	223637
#	250337
#
# Disc length: 3518 seconds
#
# Revision: 0
# Processed by: cddbd v1.5.2PL0 Copyright (c) Steve Scherf et al.
# Submitted via: CDex 1.70beta2
#
DISCID=aa0dbc0a
DTITLE=Manhattan Jazz Story - 7 Cleopatra's Dream
DYEAR=1992
DGENRE=Jazz
TTITLE0=Cleopatra's Dream - Bud Powell
TTITLE1=Manha De Carnaval - Dexter Gordon
TTITLE2=My Funny Valentine - Bill Evans
TTITLE3=Cool Struttin' - Sonny Clark
TTITLE4=Unforgettable - Nat King Cole
TTITLE5=Recado Bossa Nova - Hank Mobley
TTITLE6=I Remember Clifford - Lee Morgan
TTITLE7=But Not For Me - Chet Baker
TTITLE8=Yesterdays - Paul Chambers
TTITLE9=You Go To My Head - Stan Getz
EXTD=YEAR: 1992
EXTT0=
EXTT1=
EXTT2=
EXTT3=
EXTT4=
EXTT5=
EXTT6=
EXTT7=
EXTT8=
EXTT9=
PLAYORDER=
